# xmcd CD database file
#
# Track frame offsets:
#	150
#	23480
#	39211
#	63717
#	76577
#	84785
#	101274
#	124805
#	150302
#	157324
#	177677
#	203615
#	211099
#	219347
#	240979
#
# Disc length: 3419 seconds
#
# Revision: 1
# Processed by: cddbd v1.5.1PL2 Copyright (c) Steve Scherf et al.
# Submitted via: CDex 1.51
#
DISCID=ad0d590f
DTITLE=Aziza Mustafa Zadeh - Contrasts
DYEAR=2006
DGENRE=Jazz
TTITLE0=Singing Nature 
TTITLE1=Night life in Georgien 
TTITLE2=Starts Dance
TTITLE3=Dreaming Sheheredazeh
TTITLE4=Bachuana
TTITLE5=Last day of chopin
TTITLE6=Past of future
TTITLE7=Contrasts
TTITLE8=Egocentric Bumble-Bee
TTITLE9=Jazzerei in Träumerei
TTITLE10=Bolero
TTITLE11=The Way of the Palace
TTITLE12=The Mirror Of The Miracle
TTITLE13=The Nightingale Et The Rose
TTITLE14=Cloudy Evening
EXTD=YEAR: 2006
EXTT0=
EXTT1=
EXTT2=
EXTT3=
EXTT4=
EXTT5=
EXTT6=
EXTT7=
EXTT8=
EXTT9=
EXTT10=
EXTT11=
EXTT12=
EXTT13=
EXTT14=
PLAYORDER=
